<svg xmlns="http://www.w3.org/2000/svg" width="28.006" height="32.013">
    <path fill="#07527A" fill-rule="evenodd" d="M16.651 24.001c-2.402 0-4.349-1.973-4.349-4.406 0-2.434 1.947-4.407 4.349-4.407s4.35 1.973 4.35 4.407c0 2.433-1.948 4.406-4.35 4.406zm1.707-5.042h-1.079v-1.093a.634.634 0 0 0-.628-.636.633.633 0 0 0-.627.636v1.093h-1.079a.633.633 0 0 0-.627.636c0 .349.282.635.627.635h1.079v1.093c0 .35.282.636.627.636a.634.634 0 0 0 .628-.636V20.23h1.079a.633.633 0 0 0 .627-.635.633.633 0 0 0-.627-.636zm-7.155.479c0 .686.133 1.34.367 1.943-.604.026-1.25.04-1.94.04-5.495 0-8.184-.906-9.17-1.349-.255-.114-.46-.441-.46-.722v-1.896c0-2.841 2.144-5.198 4.879-5.514a.461.461 0 0 1 .274.076 7.565 7.565 0 0 0 4.477 1.471c1.673 0 3.217-.55 4.478-1.471a.461.461 0 0 1 .274-.076c1.66.192 3.097 1.138 3.975 2.484a5.231 5.231 0 0 0-1.848-.341c-2.926 0-5.306 2.402-5.306 5.355zM9.63 11.504c-3.147 0-5.699-2.575-5.699-5.752C3.931 2.575 6.483 0 9.63 0c3.148 0 5.7 2.575 5.7 5.752 0 3.177-2.552 5.752-5.7 5.752z"/>
</svg>
